<svg width="65" height="65" viewBox="0 0 65 65" fill="none" xmlns="http://www.w3.org/2000/svg">
<g clip-path="url(#clip0_202_8863)">
<path d="M33 19.667C36.6227 19.667 37.0747 19.6803 38.496 19.747C39.916 19.8137 40.8827 20.0363 41.7333 20.367C42.6133 20.7057 43.3547 21.1643 44.096 21.9043C44.774 22.5709 45.2986 23.3771 45.6333 24.267C45.9627 25.1163 46.1867 26.0843 46.2533 27.5043C46.316 28.9257 46.3333 29.3777 46.3333 33.0003C46.3333 36.623 46.32 37.075 46.2533 38.4963C46.1867 39.9163 45.9627 40.883 45.6333 41.7337C45.2996 42.624 44.7748 43.4305 44.096 44.0963C43.4293 44.7741 42.6231 45.2987 41.7333 45.6337C40.884 45.963 39.916 46.187 38.496 46.2537C37.0747 46.3163 36.6227 46.3337 33 46.3337C29.3773 46.3337 28.9253 46.3203 27.504 46.2537C26.084 46.187 25.1173 45.963 24.2667 45.6337C23.3764 45.2996 22.57 44.7749 21.904 44.0963C21.2259 43.4299 20.7012 42.6236 20.3667 41.7337C20.036 40.8843 19.8133 39.9163 19.7467 38.4963C19.684 37.075 19.6667 36.623 19.6667 33.0003C19.6667 29.3777 19.68 28.9257 19.7467 27.5043C19.8133 26.083 20.036 25.1177 20.3667 24.267C20.7003 23.3766 21.2251 22.5701 21.904 21.9043C22.5702 21.226 23.3766 20.7013 24.2667 20.367C25.1173 20.0363 26.0827 19.8137 27.504 19.747C28.9253 19.6843 29.3773 19.667 33 19.667ZM33 26.3337C31.2319 26.3337 29.5362 27.036 28.2859 28.2863C27.0357 29.5365 26.3333 31.2322 26.3333 33.0003C26.3333 34.7684 27.0357 36.4641 28.2859 37.7144C29.5362 38.9646 31.2319 39.667 33 39.667C34.7681 39.667 36.4638 38.9646 37.714 37.7144C38.9643 36.4641 39.6667 34.7684 39.6667 33.0003C39.6667 31.2322 38.9643 29.5365 37.714 28.2863C36.4638 27.036 34.7681 26.3337 33 26.3337ZM41.6667 26.0003C41.6667 25.5583 41.4911 25.1344 41.1785 24.8218C40.8659 24.5093 40.442 24.3337 40 24.3337C39.558 24.3337 39.134 24.5093 38.8215 24.8218C38.5089 25.1344 38.3333 25.5583 38.3333 26.0003C38.3333 26.4424 38.5089 26.8663 38.8215 27.1788C39.134 27.4914 39.558 27.667 40 27.667C40.442 27.667 40.8659 27.4914 41.1785 27.1788C41.4911 26.8663 41.6667 26.4424 41.6667 26.0003ZM33 29.0003C34.0609 29.0003 35.0783 29.4218 35.8284 30.1719C36.5786 30.922 37 31.9395 37 33.0003C37 34.0612 36.5786 35.0786 35.8284 35.8288C35.0783 36.5789 34.0609 37.0003 33 37.0003C31.9391 37.0003 30.9217 36.5789 30.1716 35.8288C29.4214 35.0786 29 34.0612 29 33.0003C29 31.9395 29.4214 30.922 30.1716 30.1719C30.9217 29.4218 31.9391 29.0003 33 29.0003Z" fill="#6854FC"/>
</g>
<rect opacity="0.1" width="65" height="65" rx="20" fill="#6854FC"/>
<defs>
<clipPath id="clip0_202_8863">
<rect width="32" height="32" fill="white" transform="translate(17 17)"/>
</clipPath>
</defs>
</svg>
