<svg width="65" height="65" viewBox="0 0 65 65" fill="none" xmlns="http://www.w3.org/2000/svg">
    <g clip-path="url(#clip0_202_8875)">
    <path d="M26.2533 23.667C26.253 24.3743 25.9717 25.0524 25.4714 25.5523C24.971 26.0521 24.2926 26.3327 23.5853 26.3324C22.8781 26.332 22.2 26.0507 21.7001 25.5504C21.2003 25.05 20.9197 24.3716 20.92 23.6644C20.9204 22.9571 21.2017 22.279 21.702 21.7791C22.2024 21.2793 22.8808 20.9987 23.588 20.999C24.2953 20.9994 24.9734 21.2807 25.4732 21.781C25.9731 22.2814 26.2537 22.9598 26.2533 23.667ZM26.3333 28.307H21V45.0004H26.3333V28.307ZM34.76 28.307H29.4533V45.0004H34.7067V36.2404C34.7067 31.3604 41.0667 30.907 41.0667 36.2404V45.0004H46.3333V34.427C46.3333 26.2004 36.92 26.507 34.7067 30.547L34.76 28.307Z" fill="#6854FC"/>
    </g>
    <rect opacity="0.1" width="65" height="65" rx="20" fill="#6854FC"/>
    <defs>
    <clipPath id="clip0_202_8875">
    <rect width="32" height="32" fill="white" transform="translate(17 17)"/>
    </clipPath>
    </defs>
</svg>
