<svg width="65" height="65" viewBox="0 0 65 65" fill="none" xmlns="http://www.w3.org/2000/svg">
    <g clip-path="url(#clip0_202_8881)">
    <path d="M46.5493 24.5412C45.5314 24.9915 44.452 25.2872 43.3467 25.4186C44.5117 24.7218 45.3836 23.6253 45.8 22.3332C44.7067 22.9839 43.508 23.4399 42.2587 23.6866C41.4195 22.7887 40.3072 22.1932 39.0946 21.9927C37.8821 21.7922 36.6373 21.9979 35.5537 22.5778C34.4701 23.1578 33.6085 24.0795 33.1028 25.1996C32.5971 26.3198 32.4757 27.5756 32.7573 28.7719C30.5402 28.6608 28.3711 28.0846 26.3911 27.0808C24.411 26.077 22.6642 24.668 21.264 22.9452C20.7684 23.7965 20.5079 24.7642 20.5093 25.7492C20.5093 27.6826 21.4933 29.3906 22.9893 30.3906C22.104 30.3627 21.2382 30.1236 20.464 29.6932V29.7626C20.4643 31.0502 20.9098 32.2981 21.7251 33.2946C22.5404 34.2912 23.6753 34.9752 24.9373 35.2306C24.1155 35.4533 23.2538 35.4861 22.4173 35.3266C22.7732 36.4349 23.4667 37.4042 24.4008 38.0987C25.3349 38.7933 26.4628 39.1783 27.6267 39.1999C26.47 40.1083 25.1456 40.7799 23.7292 41.1761C22.3128 41.5724 20.8322 41.6856 19.372 41.5092C21.9209 43.1485 24.8881 44.0187 27.9187 44.0159C38.176 44.0159 43.7853 35.5186 43.7853 28.1492C43.7853 27.9092 43.7787 27.6666 43.768 27.4292C44.8598 26.6401 45.8021 25.6626 46.5507 24.5426L46.5493 24.5412Z" fill="#6854FC"/>
    </g>
    <rect opacity="0.1" width="65" height="65" rx="20" fill="#6854FC"/>
    <defs>
    <clipPath id="clip0_202_8881">
    <rect width="32" height="32" fill="white" transform="translate(17 17)"/>
    </clipPath>
    </defs>
</svg>
