<svg width="292" height="330" viewBox="0 0 292 330" fill="none" xmlns="http://www.w3.org/2000/svg">
<path opacity="0.05" d="M5.70906 24.9052C10.4561 18.4526 17.5767 15.0564 27.0708 14.3772C44.3636 13.0188 54.1967 21.1695 56.5702 38.8292C67.0815 109.808 78.6101 169.919 90.8168 219.162L165.074 77.5447C171.856 64.6395 180.332 57.8473 190.505 57.1681C205.424 56.1493 214.579 65.6583 218.309 85.6953C226.786 130.863 237.636 169.239 250.521 201.842C259.337 115.581 274.256 53.4324 295.279 15.0565C300.365 5.54741 307.824 0.792893 317.658 0.113674C325.456 -0.565546 332.577 1.81172 339.019 6.90587C345.462 12 348.852 18.4525 349.531 26.2636C349.87 32.3765 348.852 37.4708 346.14 42.5649C332.916 67.0168 322.065 108.11 313.25 165.164C304.773 220.521 301.721 263.651 303.755 294.555C304.434 303.046 303.077 310.517 299.687 316.97C295.618 324.441 289.514 328.516 281.716 329.196C272.9 329.875 263.745 325.799 254.929 316.63C223.395 284.367 198.303 236.143 179.993 171.956C157.954 215.426 141.678 248.029 131.167 269.764C111.161 308.14 94.2075 327.837 79.9664 328.856C70.8114 329.535 63.0127 321.724 56.2312 305.423C38.9384 260.934 20.2893 175.013 0.2839 47.6591C-0.733323 38.8292 0.962018 31.0181 5.70906 24.9052Z" fill="#FF0000"/>
</svg>
