<svg width="28" height="28" viewBox="0 0 28 28" fill="none" xmlns="http://www.w3.org/2000/svg">
<path d="M11 6C11 6.55228 11.4477 7 12 7C12.5523 7 13 6.55228 13 6L11 6ZM13 3C13 2.44772 12.5523 2 12 2C11.4477 2 11 2.44772 11 3L13 3ZM13 6L13 3L11 3L11 6L13 6Z" fill="#33363F"/>
<path d="M11 21C11 21.5523 11.4477 22 12 22C12.5523 22 13 21.5523 13 21L11 21ZM13 19C13 18.4477 12.5523 18 12 18C11.4477 18 11 18.4477 11 19L13 19ZM13 21L13 19L11 19L11 21L13 21Z" fill="#33363F"/>
<path d="M19 11C18.4477 11 18 11.4477 18 12C18 12.5523 18.4477 13 19 13L19 11ZM21 13C21.5523 13 22 12.5523 22 12C22 11.4477 21.5523 11 21 11L21 13ZM19 13L21 13L21 11L19 11L19 13Z" fill="#33363F"/>
<path d="M3 11C2.44772 11 2 11.4477 2 12C2 12.5523 2.44772 13 3 13L3 11ZM6 13C6.55228 13 7 12.5523 7 12C7 11.4477 6.55228 11 6 11L6 13ZM3 13L6 13L6 11L3 11L3 13Z" fill="#33363F"/>
<path d="M16.9499 5.63567C16.5594 6.02619 16.5594 6.65936 16.9499 7.04988C17.3404 7.4404 17.9736 7.4404 18.3641 7.04988L16.9499 5.63567ZM19.0712 6.34277C19.4617 5.95225 19.4617 5.31908 19.0712 4.92856C18.6807 4.53804 18.0475 4.53804 17.657 4.92856L19.0712 6.34277ZM18.3641 7.04988L19.0712 6.34277L17.657 4.92856L16.9499 5.63567L18.3641 7.04988Z" fill="#33363F"/>
<path d="M4.92888 17.6572C4.53836 18.0477 4.53836 18.6808 4.92888 19.0714C5.3194 19.4619 5.95257 19.4619 6.34309 19.0714L4.92888 17.6572ZM7.75731 17.6572C8.14783 17.2666 8.14783 16.6335 7.75731 16.2429C7.36678 15.8524 6.73362 15.8524 6.34309 16.2429L7.75731 17.6572ZM6.34309 19.0714L7.75731 17.6572L6.34309 16.2429L4.92888 17.6572L6.34309 19.0714Z" fill="#33363F"/>
<path d="M17.6568 16.2431C17.2663 15.8526 16.6331 15.8526 16.2426 16.2431C15.8521 16.6336 15.8521 17.2668 16.2426 17.6573L17.6568 16.2431ZM17.6568 19.0715C18.0473 19.462 18.6805 19.462 19.071 19.0715C19.4616 18.681 19.4616 18.0478 19.071 17.6573L17.6568 19.0715ZM16.2426 17.6573L17.6568 19.0715L19.071 17.6573L17.6568 16.2431L16.2426 17.6573Z" fill="#33363F"/>
<path d="M6.34309 4.92961C5.95257 4.53909 5.3194 4.53909 4.92888 4.92961C4.53836 5.32014 4.53836 5.9533 4.92888 6.34383L6.34309 4.92961ZM7.0502 8.46515C7.44072 8.85567 8.07389 8.85567 8.46441 8.46515C8.85494 8.07462 8.85494 7.44146 8.46441 7.05093L7.0502 8.46515ZM4.92888 6.34383L7.0502 8.46515L8.46441 7.05093L6.34309 4.92961L4.92888 6.34383Z" fill="#33363F"/>
</svg>
