<svg width="75" height="473" viewBox="0 0 75 473" fill="none" xmlns="http://www.w3.org/2000/svg">
<circle cx="55.203" cy="468.637" r="3.52358" transform="rotate(-180 55.203 468.637)" fill="#70C217"/>
<circle cx="3.52329" cy="468.637" r="3.52358" transform="rotate(-180 3.52329 468.637)" fill="#70C217"/>
<circle cx="55.203" cy="416.958" r="3.52358" transform="rotate(-180 55.203 416.958)" fill="#70C217"/>
<circle cx="3.52329" cy="416.957" r="3.52358" transform="rotate(-180 3.52329 416.957)" fill="#70C217"/>
<circle cx="55.203" cy="365.278" r="3.52358" transform="rotate(-180 55.203 365.278)" fill="#70C217"/>
<circle cx="3.52329" cy="365.278" r="3.52358" transform="rotate(-180 3.52329 365.278)" fill="#70C217"/>
<circle cx="55.203" cy="313.599" r="3.52358" transform="rotate(-180 55.203 313.599)" fill="#70C217"/>
<circle cx="3.52329" cy="313.599" r="3.52358" transform="rotate(-180 3.52329 313.599)" fill="#70C217"/>
<circle cx="55.203" cy="261.92" r="3.52358" transform="rotate(-180 55.203 261.92)" fill="#70C217"/>
<circle cx="3.52329" cy="261.92" r="3.52358" transform="rotate(-180 3.52329 261.92)" fill="#70C217"/>
<circle cx="55.203" cy="210.241" r="3.52358" transform="rotate(-180 55.203 210.241)" fill="#70C217"/>
<circle cx="3.52329" cy="210.241" r="3.52358" transform="rotate(-180 3.52329 210.241)" fill="#70C217"/>
<circle cx="55.203" cy="158.561" r="3.52358" transform="rotate(-180 55.203 158.561)" fill="#70C217"/>
<circle cx="3.52329" cy="158.561" r="3.52358" transform="rotate(-180 3.52329 158.561)" fill="#70C217"/>
<circle cx="55.203" cy="106.882" r="3.52358" transform="rotate(-180 55.203 106.882)" fill="#70C217"/>
<circle cx="3.52329" cy="106.882" r="3.52358" transform="rotate(-180 3.52329 106.882)" fill="#70C217"/>
<circle cx="55.203" cy="55.203" r="3.52358" transform="rotate(-180 55.203 55.203)" fill="#70C217"/>
<circle cx="3.52329" cy="55.203" r="3.52358" transform="rotate(-180 3.52329 55.203)" fill="#70C217"/>
<circle cx="55.203" cy="3.52378" r="3.52358" transform="rotate(-180 55.203 3.52378)" fill="#70C217"/>
<circle cx="3.52329" cy="3.52378" r="3.52358" transform="rotate(-180 3.52329 3.52378)" fill="#70C217"/>
</svg>
