<svg width="30" height="30" viewBox="0 0 30 30" fill="none" xmlns="http://www.w3.org/2000/svg">
<circle cx="15" cy="15" r="13.5" stroke="#005898" stroke-width="3"/>
<path d="M16.2284 10.704C15.8084 10.704 15.4544 10.572 15.1664 10.308C14.8784 10.032 14.7344 9.696 14.7344 9.3C14.7344 8.904 14.8784 8.574 15.1664 8.31C15.4544 8.046 15.8084 7.914 16.2284 7.914C16.6484 7.914 16.9964 8.046 17.2724 8.31C17.5604 8.574 17.7044 8.904 17.7044 9.3C17.7044 9.696 17.5604 10.032 17.2724 10.308C16.9964 10.572 16.6484 10.704 16.2284 10.704ZM15.4724 21C14.8364 21 14.3624 20.802 14.0504 20.406C13.7384 19.998 13.6424 19.458 13.7624 18.786L14.5544 14.322C14.6264 13.926 14.4704 13.728 14.0864 13.728H11.9264L12.2144 12.072H14.7164C15.4844 12.072 16.0004 12.252 16.2644 12.612C16.5284 12.972 16.5944 13.536 16.4624 14.304L15.6704 18.75C15.6104 19.146 15.7724 19.344 16.1564 19.344H18.6944L18.4064 21H15.4724Z" fill="black"/>
</svg>
