<svg width="68" height="68" viewBox="0 0 68 68" fill="none" xmlns="http://www.w3.org/2000/svg">
<path d="M12.1895 18.4179L28.5667 30.1185C31.8168 32.4405 36.1827 32.4405 39.4327 30.1185L55.81 18.4179" stroke="#0095FF" stroke-width="3" stroke-linecap="round"/>
<path d="M8.17544 25.0715C10.0813 17.3962 16.1672 11.4618 23.8867 9.75125L25.1727 9.4663C30.9872 8.1779 37.0131 8.1779 42.8276 9.4663L44.1136 9.75125C51.8331 11.4618 57.919 17.3962 59.8249 25.0715C61.2808 30.9348 61.2808 37.0652 59.8249 42.9285C57.919 50.6038 51.8331 56.5382 44.1136 58.2488L42.8276 58.5337C37.0131 59.8221 30.9872 59.8221 25.1727 58.5337L23.8867 58.2487C16.1672 56.5382 10.0813 50.6038 8.17544 42.9286C6.71951 37.0653 6.71951 30.9348 8.17544 25.0715Z" stroke="#0095FF" stroke-width="3" stroke-linecap="round"/>
<path d="M59.8249 42.9285C61.2808 37.0652 61.2808 30.9348 59.8249 25.0715C57.919 17.3962 51.8331 11.4618 44.1136 9.75125L42.8276 9.4663C37.0131 8.1779 30.9872 8.1779 25.1727 9.4663L23.8867 9.75125C16.1672 11.4618 10.0813 17.3962 8.17544 25.0715C6.71951 30.9348 6.71951 37.0653 8.17544 42.9286C10.0813 50.6038 16.1672 56.5382 23.8867 58.2487L25.1727 58.5337C30.9872 59.8221 37.0131 59.8221 42.8276 58.5337L44.1136 58.2488" stroke="#363853" stroke-width="3" stroke-linecap="round"/>
</svg>
