<svg width="27" height="31" viewBox="0 0 27 31" fill="none" xmlns="http://www.w3.org/2000/svg">
<path opacity="0.5" d="M18.9426 15.3704L26.3303 23.7961C26.7736 24.3017 26.9952 24.9758 26.9952 25.6498C26.9952 26.4081 26.7736 27.0822 26.3303 27.5877L24.705 29.4414C24.1879 29.947 23.5969 30.1997 23.0058 30.1997C22.3409 30.1997 21.8238 29.947 21.3805 29.4414L13.9927 21.0156L6.60495 29.4414C6.16168 29.947 5.57066 30.1997 4.97964 30.1997C4.31474 30.1997 3.72372 29.947 3.28045 29.4414L1.65514 27.5877C1.21187 27.0822 0.990234 26.4081 0.990234 25.6498C0.990234 24.9758 1.21187 24.3017 1.65514 23.7961L9.04292 15.3704L1.65514 6.9446C1.21187 6.43906 0.990234 5.84925 0.990234 5.09093C0.990234 4.41687 1.21187 3.74281 1.65514 3.153L3.28045 1.29934C3.72372 0.793789 4.31474 0.541016 4.97964 0.541016C5.57066 0.541016 6.16168 0.793789 6.60495 1.29934L13.9927 9.72511L21.3805 1.29934C21.8238 0.793789 22.3409 0.541016 23.0058 0.541016C23.5969 0.541016 24.1879 0.793789 24.705 1.29934L26.3303 3.153C26.7736 3.74281 26.9952 4.41687 26.9952 5.09093C26.9952 5.84925 26.7736 6.43906 26.3303 6.9446L18.9426 15.3704Z" fill="#40BFFF"/>
</svg>
