<svg width="53" height="53" viewBox="0 0 53 53" fill="none" xmlns="http://www.w3.org/2000/svg">
<g filter="url(#filter0_dd_202_13471)">
<rect x="3.31152" y="2.91016" width="46" height="46" rx="23" fill="white"/>
<path fill-rule="evenodd" clip-rule="evenodd" d="M17.3115 19.7227C17.3115 19.412 17.5634 19.1602 17.874 19.1602H19.5615C19.8196 19.1602 20.0446 19.3358 20.1072 19.5862L20.5632 21.4102H33.624C33.7972 21.4102 33.9608 21.49 34.0674 21.6265C34.174 21.763 34.2117 21.941 34.1697 22.1091L32.4822 28.8591C32.4196 29.1095 32.1946 29.2852 31.9365 29.2852H21.8115C21.5534 29.2852 21.3284 29.1095 21.2658 28.8591L19.1223 20.2852H17.874C17.5634 20.2852 17.3115 20.0333 17.3115 19.7227ZM20.8445 22.5352L22.2507 28.1602H31.4973L32.9036 22.5352H20.8445ZM22.9365 31.5352C22.3152 31.5352 21.8115 32.0388 21.8115 32.6602C21.8115 33.2815 22.3152 33.7852 22.9365 33.7852C23.5578 33.7852 24.0615 33.2815 24.0615 32.6602C24.0615 32.0388 23.5578 31.5352 22.9365 31.5352ZM20.6865 32.6602C20.6865 31.4175 21.6939 30.4102 22.9365 30.4102C24.1792 30.4102 25.1865 31.4175 25.1865 32.6602C25.1865 33.9028 24.1792 34.9102 22.9365 34.9102C21.6939 34.9102 20.6865 33.9028 20.6865 32.6602ZM30.8115 31.5352C30.1902 31.5352 29.6865 32.0388 29.6865 32.6602C29.6865 33.2815 30.1902 33.7852 30.8115 33.7852C31.4328 33.7852 31.9365 33.2815 31.9365 32.6602C31.9365 32.0388 31.4328 31.5352 30.8115 31.5352ZM28.5615 32.6602C28.5615 31.4175 29.5689 30.4102 30.8115 30.4102C32.0542 30.4102 33.0615 31.4175 33.0615 32.6602C33.0615 33.9028 32.0542 34.9102 30.8115 34.9102C29.5689 34.9102 28.5615 33.9028 28.5615 32.6602Z" fill="black"/>
</g>
<defs>
<filter id="filter0_dd_202_13471" x="0.311523" y="0.910156" width="52" height="52" filterUnits="userSpaceOnUse" color-interpolation-filters="sRGB">
<feFlood flood-opacity="0" result="BackgroundImageFix"/>
<feColorMatrix in="SourceAlpha" type="matrix" values="0 0 0 0 0 0 0 0 0 0 0 0 0 0 0 0 0 0 127 0" result="hardAlpha"/>
<feOffset dy="1"/>
<feGaussianBlur stdDeviation="1.5"/>
<feColorMatrix type="matrix" values="0 0 0 0 0.196078 0 0 0 0 0.196078 0 0 0 0 0.278431 0 0 0 0.1 0"/>
<feBlend mode="normal" in2="BackgroundImageFix" result="effect1_dropShadow_202_13471"/>
<feColorMatrix in="SourceAlpha" type="matrix" values="0 0 0 0 0 0 0 0 0 0 0 0 0 0 0 0 0 0 127 0" result="hardAlpha"/>
<feOffset/>
<feGaussianBlur stdDeviation="0.5"/>
<feColorMatrix type="matrix" values="0 0 0 0 0.0470588 0 0 0 0 0.101961 0 0 0 0 0.294118 0 0 0 0.2 0"/>
<feBlend mode="normal" in2="effect1_dropShadow_202_13471" result="effect2_dropShadow_202_13471"/>
<feBlend mode="normal" in="SourceGraphic" in2="effect2_dropShadow_202_13471" result="shape"/>
</filter>
</defs>
</svg>
