<svg width="435" height="746" viewBox="0 0 435 746" fill="none" xmlns="http://www.w3.org/2000/svg">
<circle cx="243.24" cy="741.637" r="3.52358" transform="rotate(-180 243.24 741.637)" fill="#FFC2E7"/>
<circle cx="191.561" cy="741.637" r="3.52358" transform="rotate(-180 191.561 741.637)" fill="#FFC2E7"/>
<circle cx="139.882" cy="741.637" r="3.52358" transform="rotate(-180 139.882 741.637)" fill="#FFC2E7"/>
<circle cx="88.203" cy="741.637" r="3.52358" transform="rotate(-180 88.203 741.637)" fill="#FFC2E7"/>
<circle cx="36.5233" cy="741.637" r="3.52358" transform="rotate(-180 36.5233 741.637)" fill="#FFC2E7"/>
<circle cx="243.24" cy="689.957" r="3.52358" transform="rotate(-180 243.24 689.957)" fill="#FFC2E7"/>
<circle cx="191.561" cy="689.957" r="3.52358" transform="rotate(-180 191.561 689.957)" fill="#FFC2E7"/>
<circle cx="139.882" cy="689.957" r="3.52358" transform="rotate(-180 139.882 689.957)" fill="#FFC2E7"/>
<circle cx="88.203" cy="689.957" r="3.52358" transform="rotate(-180 88.203 689.957)" fill="#FFC2E7"/>
<circle cx="36.5233" cy="689.957" r="3.52358" transform="rotate(-180 36.5233 689.957)" fill="#FFC2E7"/>
<circle cx="243.24" cy="638.278" r="3.52358" transform="rotate(-180 243.24 638.278)" fill="#FFC2E7"/>
<circle cx="191.561" cy="638.278" r="3.52358" transform="rotate(-180 191.561 638.278)" fill="#FFC2E7"/>
<circle cx="139.882" cy="638.278" r="3.52358" transform="rotate(-180 139.882 638.278)" fill="#FFC2E7"/>
<circle cx="88.203" cy="638.278" r="3.52358" transform="rotate(-180 88.203 638.278)" fill="#FFC2E7"/>
<circle cx="36.5233" cy="638.278" r="3.52358" transform="rotate(-180 36.5233 638.278)" fill="#FFC2E7"/>
<circle cx="243.24" cy="586.599" r="3.52358" transform="rotate(-180 243.24 586.599)" fill="#FFC2E7"/>
<circle cx="191.561" cy="586.599" r="3.52358" transform="rotate(-180 191.561 586.599)" fill="#FFC2E7"/>
<circle cx="139.882" cy="586.599" r="3.52358" transform="rotate(-180 139.882 586.599)" fill="#FFC2E7"/>
<circle cx="88.203" cy="586.599" r="3.52358" transform="rotate(-180 88.203 586.599)" fill="#FFC2E7"/>
<circle cx="36.5233" cy="586.599" r="3.52358" transform="rotate(-180 36.5233 586.599)" fill="#FFC2E7"/>
<circle cx="243.24" cy="534.92" r="3.52358" transform="rotate(-180 243.24 534.92)" fill="#FFC2E7"/>
<circle cx="191.561" cy="534.92" r="3.52358" transform="rotate(-180 191.561 534.92)" fill="#FFC2E7"/>
<circle cx="139.882" cy="534.92" r="3.52358" transform="rotate(-180 139.882 534.92)" fill="#FFC2E7"/>
<circle cx="88.203" cy="534.92" r="3.52358" transform="rotate(-180 88.203 534.92)" fill="#FFC2E7"/>
<circle cx="36.5233" cy="534.92" r="3.52358" transform="rotate(-180 36.5233 534.92)" fill="#FFC2E7"/>
<circle cx="243.24" cy="483.241" r="3.52358" transform="rotate(-180 243.24 483.241)" fill="#FFC2E7"/>
<circle cx="191.561" cy="483.241" r="3.52358" transform="rotate(-180 191.561 483.241)" fill="#FFC2E7"/>
<circle cx="139.882" cy="483.241" r="3.52358" transform="rotate(-180 139.882 483.241)" fill="#FFC2E7"/>
<circle cx="88.203" cy="483.241" r="3.52358" transform="rotate(-180 88.203 483.241)" fill="#FFC2E7"/>
<circle cx="36.5233" cy="483.241" r="3.52358" transform="rotate(-180 36.5233 483.241)" fill="#FFC2E7"/>
<circle cx="243.24" cy="431.561" r="3.52358" transform="rotate(-180 243.24 431.561)" fill="#FFC2E7"/>
<circle cx="191.561" cy="431.561" r="3.52358" transform="rotate(-180 191.561 431.561)" fill="#FFC2E7"/>
<circle cx="139.882" cy="431.561" r="3.52358" transform="rotate(-180 139.882 431.561)" fill="#FFC2E7"/>
<circle cx="88.203" cy="431.561" r="3.52358" transform="rotate(-180 88.203 431.561)" fill="#FFC2E7"/>
<circle cx="36.5233" cy="431.561" r="3.52358" transform="rotate(-180 36.5233 431.561)" fill="#FFC2E7"/>
<circle cx="243.24" cy="379.882" r="3.52358" transform="rotate(-180 243.24 379.882)" fill="#FFC2E7"/>
<circle cx="191.561" cy="379.882" r="3.52358" transform="rotate(-180 191.561 379.882)" fill="#FFC2E7"/>
<circle cx="139.882" cy="379.882" r="3.52358" transform="rotate(-180 139.882 379.882)" fill="#FFC2E7"/>
<circle cx="88.203" cy="379.882" r="3.52358" transform="rotate(-180 88.203 379.882)" fill="#FFC2E7"/>
<circle cx="36.5233" cy="379.882" r="3.52358" transform="rotate(-180 36.5233 379.882)" fill="#FFC2E7"/>
<circle cx="243.24" cy="328.203" r="3.52358" transform="rotate(-180 243.24 328.203)" fill="#FFC2E7"/>
<circle cx="191.561" cy="328.203" r="3.52358" transform="rotate(-180 191.561 328.203)" fill="#FFC2E7"/>
<circle cx="139.882" cy="328.203" r="3.52358" transform="rotate(-180 139.882 328.203)" fill="#FFC2E7"/>
<circle cx="88.203" cy="328.203" r="3.52358" transform="rotate(-180 88.203 328.203)" fill="#FFC2E7"/>
<circle cx="36.5233" cy="328.203" r="3.52358" transform="rotate(-180 36.5233 328.203)" fill="#FFC2E7"/>
<circle cx="243.24" cy="276.524" r="3.52358" transform="rotate(-180 243.24 276.524)" fill="#FFC2E7"/>
<circle cx="191.561" cy="276.524" r="3.52358" transform="rotate(-180 191.561 276.524)" fill="#FFC2E7"/>
<circle cx="139.882" cy="276.524" r="3.52358" transform="rotate(-180 139.882 276.524)" fill="#FFC2E7"/>
<circle cx="88.203" cy="276.524" r="3.52358" transform="rotate(-180 88.203 276.524)" fill="#FFC2E7"/>
<circle cx="36.5233" cy="276.524" r="3.52358" transform="rotate(-180 36.5233 276.524)" fill="#FFC2E7"/>
<circle cx="32.5" cy="56.5" r="30" stroke="#F8EDEE" stroke-width="5"/>
<circle cx="234.5" cy="200.5" r="198" stroke="#FFBA49" stroke-opacity="0.8" stroke-width="5"/>
</svg>
