<svg width="74" height="74" viewBox="0 0 74 74" fill="none" xmlns="http://www.w3.org/2000/svg">
<path d="M58.4825 19.9082L37.9848 11.1234C37.3559 10.8539 36.6441 10.8539 36.0152 11.1234L15.5175 19.9082C14.4934 20.3471 13.8834 21.4106 14.0216 22.5161L16.7179 44.0867C16.9538 45.9737 17.8977 47.7006 19.3586 48.9181L35.3995 62.2855C36.3266 63.0581 37.6733 63.0581 38.6004 62.2855L37.6402 61.1332L38.6005 62.2855L54.6414 48.9181C56.1023 47.7006 57.0462 45.9737 57.2821 44.0867L59.9784 22.5161C60.1166 21.4106 59.5066 20.3471 58.4825 19.9082Z" stroke="#33363F" stroke-width="3" stroke-linecap="round"/>
<path d="M27.7497 35L36.5684 43.8187C36.7915 44.0418 37.163 44.0051 37.338 43.7425L49.333 25.75" stroke="#33363F" stroke-width="3" stroke-linecap="round"/>
</svg>
