<svg width="74" height="74" viewBox="0 0 74 74" fill="none" xmlns="http://www.w3.org/2000/svg">
<path d="M58.4823 19.9082L37.9846 11.1234C37.3558 10.8539 36.6439 10.8539 36.015 11.1234L15.5173 19.9082C14.4933 20.347 13.8832 21.4106 14.0214 22.5161L16.7177 44.0867C16.9536 45.9737 17.8975 47.7006 19.3584 48.918L35.3994 62.2855C36.3265 63.0581 37.6732 63.0581 38.6003 62.2855L37.64 61.1332L38.6003 62.2855L54.6412 48.918C56.1021 47.7006 57.0461 45.9737 57.2819 44.0867L59.9782 22.5161C60.1164 21.4106 59.5064 20.347 58.4823 19.9082Z" stroke="#33363F" stroke-width="3" stroke-linecap="round"/>
<path d="M27.7497 35L36.5684 43.8187C36.7915 44.0418 37.163 44.0051 37.338 43.7425L49.333 25.75" stroke="#33363F" stroke-width="3" stroke-linecap="round"/>
</svg>
