<svg width="67" height="67" viewBox="0 0 67 67" fill="none" xmlns="http://www.w3.org/2000/svg">
<g clip-path="url(#clip0_289_16375)">
<g filter="url(#filter0_df_289_16375)">
<path d="M37.4 38H43M18.9311 23.0002H43M24.7799 8L3 8M43 8H37.4M3 38H24.7799" stroke="#363853" stroke-width="4" stroke-linecap="round"/>
</g>
<g filter="url(#filter1_df_289_16375)">
<path d="M37 37.6667C37 40.6122 34.5579 43 31.5455 43C28.533 43 26.0909 40.6122 26.0909 37.6667C26.0909 34.7211 28.533 32.3333 31.5455 32.3333C34.5579 32.3333 37 34.7211 37 37.6667Z" stroke="#0095FF" stroke-width="4" stroke-linecap="round" shape-rendering="crispEdges"/>
<path d="M17.9091 23C17.9091 25.9455 15.467 28.3333 12.4545 28.3333C9.44208 28.3333 7 25.9455 7 23C7 20.0545 9.44208 17.6667 12.4545 17.6667C15.467 17.6667 17.9091 20.0545 17.9091 23Z" stroke="#0095FF" stroke-width="4" stroke-linecap="round" shape-rendering="crispEdges"/>
<path d="M37 8.33333C37 11.2789 34.5579 13.6667 31.5455 13.6667C28.533 13.6667 26.0909 11.2789 26.0909 8.33333C26.0909 5.38781 28.533 3 31.5455 3C34.5579 3 37 5.38781 37 8.33333Z" stroke="#0095FF" stroke-width="4" stroke-linecap="round" shape-rendering="crispEdges"/>
</g>
<path d="M37.4 38H43M18.9311 23.0002H43M24.7799 8L3 8M43 8H37.4M3 38H24.7799" stroke="#363853" stroke-width="4" stroke-linecap="round"/>
<path d="M37 37.6667C37 40.6122 34.5579 43 31.5455 43C28.533 43 26.0909 40.6122 26.0909 37.6667C26.0909 34.7212 28.533 32.3333 31.5455 32.3333C34.5579 32.3333 37 34.7212 37 37.6667Z" stroke="#0095FF" stroke-width="4" stroke-linecap="round"/>
<path d="M17.9091 23C17.9091 25.9455 15.467 28.3333 12.4545 28.3333C9.44208 28.3333 7 25.9455 7 23C7 20.0545 9.44208 17.6667 12.4545 17.6667C15.467 17.6667 17.9091 20.0545 17.9091 23Z" stroke="#0095FF" stroke-width="4" stroke-linecap="round"/>
<path d="M37 8.33333C37 11.2789 34.5579 13.6667 31.5455 13.6667C28.533 13.6667 26.0909 11.2789 26.0909 8.33333C26.0909 5.38781 28.533 3 31.5455 3C34.5579 3 37 5.38781 37 8.33333Z" stroke="#0095FF" stroke-width="4" stroke-linecap="round"/>
</g>
<defs>
<filter id="filter0_df_289_16375" x="-7" y="2" width="60" height="50" filterUnits="userSpaceOnUse" color-interpolation-filters="sRGB">
<feFlood flood-opacity="0" result="BackgroundImageFix"/>
<feColorMatrix in="SourceAlpha" type="matrix" values="0 0 0 0 0 0 0 0 0 0 0 0 0 0 0 0 0 0 127 0" result="hardAlpha"/>
<feOffset dy="4"/>
<feGaussianBlur stdDeviation="4"/>
<feComposite in2="hardAlpha" operator="out"/>
<feColorMatrix type="matrix" values="0 0 0 0 0 0 0 0 0 0.474885 0 0 0 0 1 0 0 0 0.22 0"/>
<feBlend mode="normal" in2="BackgroundImageFix" result="effect1_dropShadow_289_16375"/>
<feBlend mode="normal" in="SourceGraphic" in2="effect1_dropShadow_289_16375" result="shape"/>
<feGaussianBlur stdDeviation="0.5" result="effect2_foregroundBlur_289_16375"/>
</filter>
<filter id="filter1_df_289_16375" x="-3" y="-3" width="50" height="60" filterUnits="userSpaceOnUse" color-interpolation-filters="sRGB">
<feFlood flood-opacity="0" result="BackgroundImageFix"/>
<feColorMatrix in="SourceAlpha" type="matrix" values="0 0 0 0 0 0 0 0 0 0 0 0 0 0 0 0 0 0 127 0" result="hardAlpha"/>
<feOffset dy="4"/>
<feGaussianBlur stdDeviation="4"/>
<feComposite in2="hardAlpha" operator="out"/>
<feColorMatrix type="matrix" values="0 0 0 0 0 0 0 0 0 0.474885 0 0 0 0 1 0 0 0 0.22 0"/>
<feBlend mode="normal" in2="BackgroundImageFix" result="effect1_dropShadow_289_16375"/>
<feBlend mode="normal" in="SourceGraphic" in2="effect1_dropShadow_289_16375" result="shape"/>
<feGaussianBlur stdDeviation="0.5" result="effect2_foregroundBlur_289_16375"/>
</filter>
<clipPath id="clip0_289_16375">
<rect width="67" height="67" fill="white"/>
</clipPath>
</defs>
</svg>
