<svg width="754" height="373" viewBox="0 0 754 373" fill="none" xmlns="http://www.w3.org/2000/svg">
<circle r="4.12556" transform="matrix(-1 0 0 1 204.159 307.126)" fill="#7854F7"/>
<circle r="4.12556" transform="matrix(-1 0 0 1 143.651 307.126)" fill="#7854F7"/>
<circle r="4.12556" transform="matrix(-1 0 0 1 83.142 307.126)" fill="#7854F7"/>
<circle r="4.12556" transform="matrix(-1 0 0 1 22.6342 307.126)" fill="#7854F7"/>
<circle r="4.12556" transform="matrix(-1 0 0 1 204.159 367.634)" fill="#7854F7"/>
<circle r="4.12556" transform="matrix(-1 0 0 1 143.651 367.634)" fill="#7854F7"/>
<circle r="4.12556" transform="matrix(-1 0 0 1 83.142 367.634)" fill="#7854F7"/>
<circle r="4.12556" transform="matrix(-1 0 0 1 22.6342 367.634)" fill="#7854F7"/>
<circle r="4.12556" transform="matrix(4.37114e-08 1 1 -4.37114e-08 204.585 186.126)" fill="#29AAF3"/>
<circle r="4.12556" transform="matrix(4.37114e-08 1 1 -4.37114e-08 204.585 246.634)" fill="#29AAF3"/>
<circle r="4.12556" transform="matrix(4.37114e-08 1 1 -4.37114e-08 204.585 307.142)" fill="#29AAF3"/>
<circle r="4.12556" transform="matrix(4.37114e-08 1 1 -4.37114e-08 204.585 367.65)" fill="#29AAF3"/>
<circle r="4.12556" transform="matrix(4.37114e-08 1 1 -4.37114e-08 265.092 186.126)" fill="#29AAF3"/>
<circle r="4.12556" transform="matrix(4.37114e-08 1 1 -4.37114e-08 265.092 246.634)" fill="#29AAF3"/>
<circle r="4.12556" transform="matrix(4.37114e-08 1 1 -4.37114e-08 265.092 307.142)" fill="#29AAF3"/>
<circle r="4.12556" transform="matrix(4.37114e-08 1 1 -4.37114e-08 265.092 367.65)" fill="#29AAF3"/>
<circle r="4.12556" transform="matrix(4.37114e-08 1 1 -4.37114e-08 325.601 186.126)" fill="#29AAF3"/>
<circle r="4.12556" transform="matrix(4.37114e-08 1 1 -4.37114e-08 325.601 246.634)" fill="#29AAF3"/>
<circle r="4.12556" transform="matrix(4.37114e-08 1 1 -4.37114e-08 325.601 307.142)" fill="#29AAF3"/>
<circle r="4.12556" transform="matrix(4.37114e-08 1 1 -4.37114e-08 325.601 367.65)" fill="#29AAF3"/>
<circle r="4.12556" transform="matrix(4.37114e-08 1 1 -4.37114e-08 386.109 186.126)" fill="#29AAF3"/>
<circle r="4.12556" transform="matrix(4.37114e-08 1 1 -4.37114e-08 386.109 246.634)" fill="#29AAF3"/>
<circle r="4.12556" transform="matrix(4.37114e-08 1 1 -4.37114e-08 386.109 307.142)" fill="#29AAF3"/>
<circle r="4.12556" transform="matrix(4.37114e-08 1 1 -4.37114e-08 386.109 367.65)" fill="#29AAF3"/>
<circle r="4.12556" transform="matrix(4.37114e-08 1 1 -4.37114e-08 446.618 186.126)" fill="#29AAF3"/>
<circle r="4.12556" transform="matrix(4.37114e-08 1 1 -4.37114e-08 446.618 246.634)" fill="#29AAF3"/>
<circle r="4.12556" transform="matrix(4.37114e-08 1 1 -4.37114e-08 446.618 307.142)" fill="#29AAF3"/>
<circle r="4.12556" transform="matrix(4.37114e-08 1 1 -4.37114e-08 446.618 367.65)" fill="#29AAF3"/>
<circle r="4.12556" transform="matrix(4.37114e-08 1 1 -4.37114e-08 507.126 186.126)" fill="#29AAF3"/>
<circle r="4.12556" transform="matrix(4.37114e-08 1 1 -4.37114e-08 507.126 246.634)" fill="#29AAF3"/>
<circle r="4.12556" transform="matrix(4.37114e-08 1 1 -4.37114e-08 507.126 307.142)" fill="#29AAF3"/>
<circle r="4.12556" transform="matrix(4.37114e-08 1 1 -4.37114e-08 507.126 367.65)" fill="#29AAF3"/>
<circle r="4.12556" transform="matrix(4.37114e-08 1 1 -4.37114e-08 567.634 186.126)" fill="#29AAF3"/>
<circle r="4.12556" transform="matrix(4.37114e-08 1 1 -4.37114e-08 567.634 246.634)" fill="#29AAF3"/>
<circle r="4.12556" transform="matrix(4.37114e-08 1 1 -4.37114e-08 567.634 307.142)" fill="#29AAF3"/>
<circle r="4.12556" transform="matrix(4.37114e-08 1 1 -4.37114e-08 567.634 367.65)" fill="#29AAF3"/>
<circle r="4.12556" transform="matrix(4.37114e-08 1 1 -4.37114e-08 628.142 186.126)" fill="#29AAF3"/>
<circle r="4.12556" transform="matrix(4.37114e-08 1 1 -4.37114e-08 628.142 246.634)" fill="#29AAF3"/>
<circle r="4.12556" transform="matrix(4.37114e-08 1 1 -4.37114e-08 628.142 307.142)" fill="#29AAF3"/>
<circle r="4.12556" transform="matrix(4.37114e-08 1 1 -4.37114e-08 628.142 367.65)" fill="#29AAF3"/>
<circle r="4.12556" transform="matrix(4.37114e-08 1 1 -4.37114e-08 688.651 186.126)" fill="#29AAF3"/>
<circle r="4.12556" transform="matrix(4.37114e-08 1 1 -4.37114e-08 688.651 246.634)" fill="#29AAF3"/>
<circle r="4.12556" transform="matrix(4.37114e-08 1 1 -4.37114e-08 688.651 307.142)" fill="#29AAF3"/>
<circle r="4.12556" transform="matrix(4.37114e-08 1 1 -4.37114e-08 688.651 367.65)" fill="#29AAF3"/>
<circle r="4.12556" transform="matrix(4.37114e-08 1 1 -4.37114e-08 749.159 186.126)" fill="#29AAF3"/>
<circle r="4.12556" transform="matrix(4.37114e-08 1 1 -4.37114e-08 749.159 246.634)" fill="#29AAF3"/>
<circle r="4.12556" transform="matrix(4.37114e-08 1 1 -4.37114e-08 749.159 307.142)" fill="#29AAF3"/>
<circle r="4.12556" transform="matrix(4.37114e-08 1 1 -4.37114e-08 749.159 367.65)" fill="#29AAF3"/>
<circle r="4.12556" transform="matrix(-1 0 0 1 204.651 4.12556)" fill="#29AAF3"/>
<circle r="4.12556" transform="matrix(-1 0 0 1 144.142 4.12556)" fill="#29AAF3"/>
<circle r="4.12556" transform="matrix(-1 0 0 1 83.6342 4.12556)" fill="#29AAF3"/>
<circle r="4.12556" transform="matrix(-1 0 0 1 23.1254 4.12556)" fill="#29AAF3"/>
<circle r="4.12556" transform="matrix(-1 0 0 1 204.651 64.6339)" fill="#29AAF3"/>
<circle r="4.12556" transform="matrix(-1 0 0 1 144.142 64.6339)" fill="#29AAF3"/>
<circle r="4.12556" transform="matrix(-1 0 0 1 83.6342 64.6339)" fill="#29AAF3"/>
<circle r="4.12556" transform="matrix(-1 0 0 1 23.1254 64.6339)" fill="#29AAF3"/>
<circle r="4.12556" transform="matrix(-1 0 0 1 204.651 125.142)" fill="#29AAF3"/>
<circle r="4.12556" transform="matrix(-1 0 0 1 144.142 125.142)" fill="#29AAF3"/>
<circle r="4.12556" transform="matrix(-1 0 0 1 83.6342 125.142)" fill="#29AAF3"/>
<circle r="4.12556" transform="matrix(-1 0 0 1 23.1254 125.142)" fill="#29AAF3"/>
<circle r="4.12556" transform="matrix(-1 0 0 1 265.159 185.65)" fill="#29AAF3"/>
<circle r="4.12556" transform="matrix(-1 0 0 1 204.651 185.65)" fill="#29AAF3"/>
<circle r="4.12556" transform="matrix(-1 0 0 1 144.142 185.65)" fill="#29AAF3"/>
<circle r="4.12556" transform="matrix(-1 0 0 1 83.6342 185.65)" fill="#29AAF3"/>
<circle r="4.12556" transform="matrix(-1 0 0 1 23.1254 185.65)" fill="#29AAF3"/>
<circle r="4.12556" transform="matrix(-1 0 0 1 265.159 246.158)" fill="#29AAF3"/>
<circle r="4.12556" transform="matrix(-1 0 0 1 204.651 246.158)" fill="#29AAF3"/>
<circle r="4.12556" transform="matrix(-1 0 0 1 144.142 246.158)" fill="#29AAF3"/>
<circle r="4.12556" transform="matrix(-1 0 0 1 83.6342 246.158)" fill="#29AAF3"/>
<circle r="4.12556" transform="matrix(-1 0 0 1 23.1254 246.158)" fill="#29AAF3"/>
<circle r="4.12556" transform="matrix(-1 0 0 1 265.159 306.667)" fill="#29AAF3"/>
<circle r="4.12556" transform="matrix(-1 0 0 1 204.651 306.667)" fill="#29AAF3"/>
<circle r="4.12556" transform="matrix(-1 0 0 1 144.142 306.667)" fill="#29AAF3"/>
<circle r="4.12556" transform="matrix(-1 0 0 1 83.6342 306.667)" fill="#29AAF3"/>
<circle r="4.12556" transform="matrix(-1 0 0 1 23.1254 306.667)" fill="#29AAF3"/>
<circle r="4.12556" transform="matrix(-1 0 0 1 265.159 367.175)" fill="#29AAF3"/>
<circle r="4.12556" transform="matrix(-1 0 0 1 204.651 367.175)" fill="#29AAF3"/>
<circle r="4.12556" transform="matrix(-1 0 0 1 144.142 367.175)" fill="#29AAF3"/>
<circle r="4.12556" transform="matrix(-1 0 0 1 83.6342 367.175)" fill="#29AAF3"/>
<circle r="4.12556" transform="matrix(-1 0 0 1 23.1254 367.175)" fill="#29AAF3"/>
</svg>
