<svg width="26" height="29" viewBox="0 0 26 29" fill="none" xmlns="http://www.w3.org/2000/svg">
<path d="M10.4288 8.31568L10.4314 8.31687C10.4861 8.05409 10.6846 7.86072 10.933 7.86072H18.0093C18.0182 7.86072 18.0271 7.85657 18.0361 7.85716C17.8853 5.02238 15.7796 3.7085 13.9217 3.7085H6.84551C6.59654 3.7085 6.39799 3.90721 6.34389 4.16939L6.34126 4.16821L3.24803 20.2065L3.25486 20.2071C3.24751 20.245 3.23438 20.2812 3.23438 20.3221C3.23438 20.6502 3.46916 20.91 3.75963 20.91H7.99897L10.4288 8.31568Z" fill="#1565C0"/>
<path d="M18.037 7.85693C18.0648 8.37655 18.0344 8.94185 17.9167 9.56646C17.2439 13.1225 14.8114 14.9732 11.8054 14.9732C11.8054 14.9732 9.98273 14.9732 9.53994 14.9732C9.26628 14.9732 9.13707 15.1548 9.07772 15.2936L8.16377 20.068L8.00357 20.9157H8.00042L7.33702 24.3537L7.34385 24.3543C7.3365 24.3923 7.32336 24.4285 7.32336 24.4694C7.32336 24.7974 7.55815 25.0626 7.84862 25.0626H11.7003L11.7071 25.0566C11.9551 25.0525 12.152 24.8526 12.2035 24.5892L12.213 24.5803L13.1647 19.5881C13.1647 19.5881 13.2309 19.1118 13.6742 19.1118C14.1175 19.1118 15.8687 19.1118 15.8687 19.1118C18.8748 19.1118 21.3319 17.2694 22.0053 13.7128C22.7627 9.70289 20.2299 7.87176 18.037 7.85693Z" fill="#039BE5"/>
<path d="M10.9335 7.8606C10.6845 7.8606 10.486 8.05398 10.4319 8.31675L10.4293 8.31557L9.07672 15.2943C9.13608 15.1555 9.26529 14.974 9.53895 14.974C9.98226 14.974 11.7634 14.974 11.7634 14.974C14.7694 14.974 17.2429 13.1232 17.9157 9.56716C18.0339 8.94255 18.0638 8.37726 18.036 7.85764C18.0276 7.85645 18.0181 7.8606 18.0097 7.8606H10.9335Z" fill="#283593"/>
</svg>
