<svg width="51" height="51" viewBox="0 0 51 51" fill="none" xmlns="http://www.w3.org/2000/svg">
<rect width="51" height="51" rx="15" fill="#6E6BFF"/>
<path fill-rule="evenodd" clip-rule="evenodd" d="M17.416 17.0611H41.5404C41.8255 17.0621 42.1061 17.1319 42.3584 17.2645C42.6108 17.3972 42.8274 17.5888 42.9898 17.8231C43.1521 18.0575 43.2556 18.3275 43.2912 18.6104C43.3268 18.8932 43.2936 19.1805 43.1944 19.4478L37.8986 33.5701C37.6391 34.2568 36.9806 34.714 36.2445 34.714H22.1223C21.4108 34.714 20.7665 34.285 20.4929 33.6283L12.1202 13.5306H8V10H12.1184C12.8158 9.99844 13.4979 10.2039 14.0784 10.5905C14.6588 10.977 15.1115 11.5272 15.3789 12.1713L17.416 17.0611ZM30.9487 27.6528H34.4792V24.1223H30.9487V20.5917H27.4181V24.1223H23.8875V27.6528H27.4181V31.1834H30.9487V27.6528ZM23.0048 41.7751C24.4673 41.7751 25.6528 40.5896 25.6528 39.1272C25.6528 37.6648 24.4673 36.4793 23.0048 36.4793C21.5424 36.4793 20.3569 37.6648 20.3569 39.1272C20.3569 40.5896 21.5424 41.7751 23.0048 41.7751ZM35.3618 41.7751C36.8242 41.7751 38.0098 40.5896 38.0098 39.1272C38.0098 37.6648 36.8242 36.4793 35.3618 36.4793C33.8994 36.4793 32.7139 37.6648 32.7139 39.1272C32.7139 40.5896 33.8994 41.7751 35.3618 41.7751Z" fill="white"/>
<rect x="21" y="19" width="16" height="13" fill="white"/>
</svg>
