<svg width="122" height="360" viewBox="0 0 122 360" fill="none" xmlns="http://www.w3.org/2000/svg">
<ellipse cx="43.4575" cy="2.68526" rx="2.77391" ry="2.68526" fill="#29AAF3"/>
<ellipse cx="84.1421" cy="2.68526" rx="2.77391" ry="2.68526" fill="#29AAF3"/>
<ellipse cx="2.77391" cy="42.069" rx="2.77391" ry="2.68526" fill="#29AAF3"/>
<ellipse cx="43.4575" cy="42.069" rx="2.77391" ry="2.68526" fill="#29AAF3"/>
<ellipse cx="84.1421" cy="42.069" rx="2.77391" ry="2.68526" fill="#29AAF3"/>
<ellipse cx="2.77391" cy="81.4528" rx="2.77391" ry="2.68526" fill="#29AAF3"/>
<ellipse cx="43.4575" cy="81.4528" rx="2.77391" ry="2.68526" fill="#29AAF3"/>
<ellipse cx="84.1421" cy="81.4528" rx="2.77391" ry="2.68526" fill="#29AAF3"/>
<ellipse cx="2.77391" cy="120.837" rx="2.77391" ry="2.68526" fill="#29AAF3"/>
<ellipse cx="43.4575" cy="120.837" rx="2.77391" ry="2.68526" fill="#29AAF3"/>
<ellipse cx="84.1421" cy="120.837" rx="2.77391" ry="2.68526" fill="#29AAF3"/>
<ellipse cx="2.77391" cy="160.22" rx="2.77391" ry="2.68526" fill="#29AAF3"/>
<ellipse cx="43.4575" cy="160.22" rx="2.77391" ry="2.68526" fill="#29AAF3"/>
<ellipse cx="84.1421" cy="160.22" rx="2.77391" ry="2.68526" fill="#29AAF3"/>
<ellipse cx="2.77391" cy="199.604" rx="2.77391" ry="2.68526" fill="#29AAF3"/>
<ellipse cx="43.4575" cy="199.604" rx="2.77391" ry="2.68526" fill="#29AAF3"/>
<ellipse cx="84.1421" cy="199.604" rx="2.77391" ry="2.68526" fill="#29AAF3"/>
<ellipse cx="2.77391" cy="238.988" rx="2.77391" ry="2.68526" fill="#29AAF3"/>
<ellipse cx="43.4575" cy="238.988" rx="2.77391" ry="2.68526" fill="#29AAF3"/>
<ellipse cx="84.1421" cy="238.988" rx="2.77391" ry="2.68526" fill="#29AAF3"/>
<ellipse cx="2.77391" cy="278.372" rx="2.77391" ry="2.68526" fill="#29AAF3"/>
<ellipse cx="43.4575" cy="278.372" rx="2.77391" ry="2.68526" fill="#29AAF3"/>
<ellipse cx="84.1421" cy="278.372" rx="2.77391" ry="2.68526" fill="#29AAF3"/>
<ellipse cx="2.77391" cy="317.756" rx="2.77391" ry="2.68526" fill="#29AAF3"/>
<ellipse cx="43.4575" cy="317.756" rx="2.77391" ry="2.68526" fill="#29AAF3"/>
<ellipse cx="84.1421" cy="317.756" rx="2.77391" ry="2.68526" fill="#29AAF3"/>
<ellipse cx="2.77391" cy="357.14" rx="2.77391" ry="2.68526" fill="#29AAF3"/>
<ellipse cx="43.4575" cy="357.14" rx="2.77391" ry="2.68526" fill="#29AAF3"/>
<ellipse cx="84.1421" cy="357.14" rx="2.77391" ry="2.68526" fill="#29AAF3"/>
</svg>
