<svg width="796" height="856" viewBox="0 0 796 856" fill="none" xmlns="http://www.w3.org/2000/svg">
<circle cx="549.126" cy="307.126" r="4.12556" fill="#7854F7"/>
<circle cx="609.633" cy="307.126" r="4.12556" fill="#7854F7"/>
<circle cx="670.142" cy="307.126" r="4.12556" fill="#7854F7"/>
<circle cx="730.65" cy="307.126" r="4.12556" fill="#7854F7"/>
<circle cx="791.159" cy="307.126" r="4.12556" fill="#7854F7"/>
<circle cx="549.126" cy="367.634" r="4.12556" fill="#7854F7"/>
<circle cx="609.633" cy="367.634" r="4.12556" fill="#7854F7"/>
<circle cx="670.142" cy="367.634" r="4.12556" fill="#7854F7"/>
<circle cx="730.65" cy="367.634" r="4.12556" fill="#7854F7"/>
<circle cx="791.159" cy="367.634" r="4.12556" fill="#7854F7"/>
<circle cx="549.126" cy="428.142" r="4.12556" fill="#7854F7"/>
<circle cx="609.633" cy="428.142" r="4.12556" fill="#7854F7"/>
<circle cx="670.142" cy="428.142" r="4.12556" fill="#7854F7"/>
<circle cx="730.65" cy="428.142" r="4.12556" fill="#7854F7"/>
<circle cx="791.159" cy="428.142" r="4.12556" fill="#7854F7"/>
<circle cx="549.126" cy="488.65" r="4.12556" fill="#7854F7"/>
<circle cx="609.633" cy="488.65" r="4.12556" fill="#7854F7"/>
<circle cx="670.142" cy="488.65" r="4.12556" fill="#7854F7"/>
<circle cx="730.65" cy="488.65" r="4.12556" fill="#7854F7"/>
<circle cx="791.159" cy="488.65" r="4.12556" fill="#7854F7"/>
<circle cx="549.126" cy="549.158" r="4.12556" fill="#7854F7"/>
<circle cx="609.633" cy="549.158" r="4.12556" fill="#7854F7"/>
<circle cx="670.142" cy="549.158" r="4.12556" fill="#7854F7"/>
<circle cx="730.65" cy="549.158" r="4.12556" fill="#7854F7"/>
<circle cx="791.159" cy="549.158" r="4.12556" fill="#7854F7"/>
<circle cx="549.126" cy="609.667" r="4.12556" fill="#7854F7"/>
<circle cx="609.633" cy="609.667" r="4.12556" fill="#7854F7"/>
<circle cx="670.142" cy="609.667" r="4.12556" fill="#7854F7"/>
<circle cx="730.65" cy="609.667" r="4.12556" fill="#7854F7"/>
<circle cx="791.159" cy="609.667" r="4.12556" fill="#7854F7"/>
<circle cx="549.126" cy="670.175" r="4.12556" fill="#7854F7"/>
<circle cx="609.633" cy="670.175" r="4.12556" fill="#7854F7"/>
<circle cx="670.142" cy="670.175" r="4.12556" fill="#7854F7"/>
<circle cx="730.65" cy="670.175" r="4.12556" fill="#7854F7"/>
<circle cx="791.159" cy="670.175" r="4.12556" fill="#7854F7"/>
<circle cx="549.126" cy="730.683" r="4.12556" fill="#7854F7"/>
<circle cx="609.633" cy="730.683" r="4.12556" fill="#7854F7"/>
<circle cx="670.142" cy="730.683" r="4.12556" fill="#7854F7"/>
<circle cx="730.65" cy="730.683" r="4.12556" fill="#7854F7"/>
<circle cx="791.159" cy="730.683" r="4.12556" fill="#7854F7"/>
<circle cx="549.126" cy="791.191" r="4.12556" fill="#7854F7"/>
<circle cx="609.633" cy="791.191" r="4.12556" fill="#7854F7"/>
<circle cx="670.142" cy="791.191" r="4.12556" fill="#7854F7"/>
<circle cx="730.65" cy="791.191" r="4.12556" fill="#7854F7"/>
<circle cx="791.159" cy="791.191" r="4.12556" fill="#7854F7"/>
<circle cx="549.126" cy="851.699" r="4.12556" fill="#7854F7"/>
<circle cx="609.633" cy="851.699" r="4.12556" fill="#7854F7"/>
<circle cx="670.142" cy="851.699" r="4.12556" fill="#7854F7"/>
<circle cx="730.65" cy="851.699" r="4.12556" fill="#7854F7"/>
<circle cx="791.159" cy="851.699" r="4.12556" fill="#7854F7"/>
<circle cx="548.7" cy="186.126" r="4.12556" transform="rotate(90 548.7 186.126)" fill="#29AAF3"/>
<circle cx="548.7" cy="246.634" r="4.12556" transform="rotate(90 548.7 246.634)" fill="#29AAF3"/>
<circle cx="548.7" cy="307.142" r="4.12556" transform="rotate(90 548.7 307.142)" fill="#29AAF3"/>
<circle cx="548.7" cy="367.65" r="4.12556" transform="rotate(90 548.7 367.65)" fill="#29AAF3"/>
<circle cx="548.7" cy="428.158" r="4.12556" transform="rotate(90 548.7 428.158)" fill="#29AAF3"/>
<circle cx="488.192" cy="186.126" r="4.12556" transform="rotate(90 488.192 186.126)" fill="#29AAF3"/>
<circle cx="488.192" cy="246.634" r="4.12556" transform="rotate(90 488.192 246.634)" fill="#29AAF3"/>
<circle cx="488.192" cy="307.142" r="4.12556" transform="rotate(90 488.192 307.142)" fill="#29AAF3"/>
<circle cx="488.192" cy="367.65" r="4.12556" transform="rotate(90 488.192 367.65)" fill="#29AAF3"/>
<circle cx="488.192" cy="428.158" r="4.12556" transform="rotate(90 488.192 428.158)" fill="#29AAF3"/>
<circle cx="427.683" cy="186.126" r="4.12556" transform="rotate(90 427.683 186.126)" fill="#29AAF3"/>
<circle cx="427.683" cy="246.634" r="4.12556" transform="rotate(90 427.683 246.634)" fill="#29AAF3"/>
<circle cx="427.683" cy="307.142" r="4.12556" transform="rotate(90 427.683 307.142)" fill="#29AAF3"/>
<circle cx="427.683" cy="367.65" r="4.12556" transform="rotate(90 427.683 367.65)" fill="#29AAF3"/>
<circle cx="427.683" cy="428.158" r="4.12556" transform="rotate(90 427.683 428.158)" fill="#29AAF3"/>
<circle cx="367.175" cy="186.126" r="4.12556" transform="rotate(90 367.175 186.126)" fill="#29AAF3"/>
<circle cx="367.175" cy="246.634" r="4.12556" transform="rotate(90 367.175 246.634)" fill="#29AAF3"/>
<circle cx="367.175" cy="307.142" r="4.12556" transform="rotate(90 367.175 307.142)" fill="#29AAF3"/>
<circle cx="367.175" cy="367.65" r="4.12556" transform="rotate(90 367.175 367.65)" fill="#29AAF3"/>
<circle cx="367.175" cy="428.158" r="4.12556" transform="rotate(90 367.175 428.158)" fill="#29AAF3"/>
<circle cx="306.666" cy="186.126" r="4.12556" transform="rotate(90 306.666 186.126)" fill="#29AAF3"/>
<circle cx="306.666" cy="246.634" r="4.12556" transform="rotate(90 306.666 246.634)" fill="#29AAF3"/>
<circle cx="306.666" cy="307.142" r="4.12556" transform="rotate(90 306.666 307.142)" fill="#29AAF3"/>
<circle cx="306.666" cy="367.65" r="4.12556" transform="rotate(90 306.666 367.65)" fill="#29AAF3"/>
<circle cx="306.666" cy="428.158" r="4.12556" transform="rotate(90 306.666 428.158)" fill="#29AAF3"/>
<circle cx="246.159" cy="186.126" r="4.12556" transform="rotate(90 246.159 186.126)" fill="#29AAF3"/>
<circle cx="246.159" cy="246.634" r="4.12556" transform="rotate(90 246.159 246.634)" fill="#29AAF3"/>
<circle cx="246.159" cy="307.142" r="4.12556" transform="rotate(90 246.159 307.142)" fill="#29AAF3"/>
<circle cx="246.159" cy="367.65" r="4.12556" transform="rotate(90 246.159 367.65)" fill="#29AAF3"/>
<circle cx="246.159" cy="428.158" r="4.12556" transform="rotate(90 246.159 428.158)" fill="#29AAF3"/>
<circle cx="185.65" cy="186.126" r="4.12556" transform="rotate(90 185.65 186.126)" fill="#29AAF3"/>
<circle cx="185.65" cy="246.634" r="4.12556" transform="rotate(90 185.65 246.634)" fill="#29AAF3"/>
<circle cx="185.65" cy="307.142" r="4.12556" transform="rotate(90 185.65 307.142)" fill="#29AAF3"/>
<circle cx="185.65" cy="367.65" r="4.12556" transform="rotate(90 185.65 367.65)" fill="#29AAF3"/>
<circle cx="185.65" cy="428.158" r="4.12556" transform="rotate(90 185.65 428.158)" fill="#29AAF3"/>
<circle cx="125.142" cy="186.126" r="4.12556" transform="rotate(90 125.142 186.126)" fill="#29AAF3"/>
<circle cx="125.142" cy="246.634" r="4.12556" transform="rotate(90 125.142 246.634)" fill="#29AAF3"/>
<circle cx="125.142" cy="307.142" r="4.12556" transform="rotate(90 125.142 307.142)" fill="#29AAF3"/>
<circle cx="125.142" cy="367.65" r="4.12556" transform="rotate(90 125.142 367.65)" fill="#29AAF3"/>
<circle cx="125.142" cy="428.158" r="4.12556" transform="rotate(90 125.142 428.158)" fill="#29AAF3"/>
<circle cx="64.6342" cy="186.126" r="4.12556" transform="rotate(90 64.6342 186.126)" fill="#29AAF3"/>
<circle cx="64.6332" cy="246.634" r="4.12556" transform="rotate(90 64.6332 246.634)" fill="#29AAF3"/>
<circle cx="64.6332" cy="307.142" r="4.12556" transform="rotate(90 64.6332 307.142)" fill="#29AAF3"/>
<circle cx="64.6332" cy="367.65" r="4.12556" transform="rotate(90 64.6332 367.65)" fill="#29AAF3"/>
<circle cx="64.6332" cy="428.158" r="4.12556" transform="rotate(90 64.6332 428.158)" fill="#29AAF3"/>
<circle cx="4.12542" cy="186.126" r="4.12556" transform="rotate(90 4.12542 186.126)" fill="#29AAF3"/>
<circle cx="4.12542" cy="246.634" r="4.12556" transform="rotate(90 4.12542 246.634)" fill="#29AAF3"/>
<circle cx="4.12542" cy="307.142" r="4.12556" transform="rotate(90 4.12542 307.142)" fill="#29AAF3"/>
<circle cx="4.12542" cy="367.65" r="4.12556" transform="rotate(90 4.12542 367.65)" fill="#29AAF3"/>
<circle cx="4.12542" cy="428.158" r="4.12556" transform="rotate(90 4.12542 428.158)" fill="#29AAF3"/>
<circle cx="548.633" cy="4.12556" r="4.12556" fill="#29AAF3"/>
<circle cx="609.142" cy="4.12556" r="4.12556" fill="#29AAF3"/>
<circle cx="669.65" cy="4.12556" r="4.12556" fill="#29AAF3"/>
<circle cx="730.159" cy="4.12556" r="4.12556" fill="#29AAF3"/>
<circle cx="548.633" cy="64.6338" r="4.12556" fill="#29AAF3"/>
<circle cx="609.142" cy="64.6338" r="4.12556" fill="#29AAF3"/>
<circle cx="669.65" cy="64.6338" r="4.12556" fill="#29AAF3"/>
<circle cx="730.159" cy="64.6338" r="4.12556" fill="#29AAF3"/>
<circle cx="548.633" cy="125.142" r="4.12556" fill="#29AAF3"/>
<circle cx="609.142" cy="125.142" r="4.12556" fill="#29AAF3"/>
<circle cx="669.65" cy="125.142" r="4.12556" fill="#29AAF3"/>
<circle cx="730.159" cy="125.142" r="4.12556" fill="#29AAF3"/>
<circle cx="488.126" cy="185.65" r="4.12556" fill="#29AAF3"/>
<circle cx="548.633" cy="185.65" r="4.12556" fill="#29AAF3"/>
<circle cx="609.142" cy="185.65" r="4.12556" fill="#29AAF3"/>
<circle cx="669.65" cy="185.65" r="4.12556" fill="#29AAF3"/>
<circle cx="730.159" cy="185.65" r="4.12556" fill="#29AAF3"/>
<circle cx="488.126" cy="246.158" r="4.12556" fill="#29AAF3"/>
<circle cx="548.633" cy="246.158" r="4.12556" fill="#29AAF3"/>
<circle cx="609.142" cy="246.158" r="4.12556" fill="#29AAF3"/>
<circle cx="669.65" cy="246.158" r="4.12556" fill="#29AAF3"/>
<circle cx="730.159" cy="246.158" r="4.12556" fill="#29AAF3"/>
<circle cx="488.126" cy="306.667" r="4.12556" fill="#29AAF3"/>
<circle cx="548.633" cy="306.667" r="4.12556" fill="#29AAF3"/>
<circle cx="609.142" cy="306.667" r="4.12556" fill="#29AAF3"/>
<circle cx="669.65" cy="306.667" r="4.12556" fill="#29AAF3"/>
<circle cx="730.159" cy="306.667" r="4.12556" fill="#29AAF3"/>
<circle cx="488.126" cy="367.175" r="4.12556" fill="#29AAF3"/>
<circle cx="548.633" cy="367.175" r="4.12556" fill="#29AAF3"/>
<circle cx="609.142" cy="367.175" r="4.12556" fill="#29AAF3"/>
<circle cx="669.65" cy="367.175" r="4.12556" fill="#29AAF3"/>
<circle cx="730.159" cy="367.175" r="4.12556" fill="#29AAF3"/>
<circle cx="488.126" cy="427.683" r="4.12556" fill="#29AAF3"/>
<circle cx="548.633" cy="427.683" r="4.12556" fill="#29AAF3"/>
<circle cx="609.142" cy="427.683" r="4.12556" fill="#29AAF3"/>
<circle cx="669.65" cy="427.683" r="4.12556" fill="#29AAF3"/>
<circle cx="730.159" cy="427.683" r="4.12556" fill="#29AAF3"/>
<circle cx="488.126" cy="488.191" r="4.12556" fill="#29AAF3"/>
<circle cx="548.633" cy="488.191" r="4.12556" fill="#29AAF3"/>
<circle cx="609.142" cy="488.191" r="4.12556" fill="#29AAF3"/>
<circle cx="669.65" cy="488.191" r="4.12556" fill="#29AAF3"/>
<circle cx="730.159" cy="488.191" r="4.12556" fill="#29AAF3"/>
<circle cx="488.126" cy="548.699" r="4.12556" fill="#29AAF3"/>
<circle cx="548.633" cy="548.699" r="4.12556" fill="#29AAF3"/>
<circle cx="609.142" cy="548.699" r="4.12556" fill="#29AAF3"/>
<circle cx="669.65" cy="548.699" r="4.12556" fill="#29AAF3"/>
<circle cx="730.159" cy="548.699" r="4.12556" fill="#29AAF3"/>
</svg>
