<svg width="1873" height="414" viewBox="0 0 1873 414" fill="none" xmlns="http://www.w3.org/2000/svg">
<g filter="url(#filter0_f_202_8932)">
<path d="M820 80L821.123 83.4549H824.755L821.816 85.5902L822.939 89.0451L820 86.9098L817.061 89.0451L818.184 85.5902L815.245 83.4549H818.877L820 80Z" fill="#FB47FF"/>
</g>
<g filter="url(#filter1_f_202_8932)">
<path d="M935 29L936.123 32.4549H939.755L936.816 34.5902L937.939 38.0451L935 35.9098L932.061 38.0451L933.184 34.5902L930.245 32.4549H933.877L935 29Z" fill="#FB47FF"/>
</g>
<g filter="url(#filter2_f_202_8932)">
<path d="M464 24L465.123 27.4549H468.755L465.816 29.5902L466.939 33.0451L464 30.9098L461.061 33.0451L462.184 29.5902L459.245 27.4549H462.877L464 24Z" fill="#FEFFCB"/>
</g>
<g filter="url(#filter3_f_202_8932)">
<path d="M548.5 151L551.306 159.637H560.388L553.041 164.975L555.847 173.613L548.5 168.275L541.153 173.613L543.959 164.975L536.612 159.637H545.694L548.5 151Z" fill="#FFCBCB"/>
</g>
<g filter="url(#filter4_f_202_8932)">
<path d="M658.5 34L660.184 39.1824H665.633L661.225 42.3853L662.908 47.5676L658.5 44.3647L654.092 47.5676L655.775 42.3853L651.367 39.1824H656.816L658.5 34Z" fill="#FEFFCB"/>
</g>
<g filter="url(#filter5_f_202_8932)">
<path d="M869 168L867.877 171.455H864.245L867.184 173.59L866.061 177.045L869 174.91L871.939 177.045L870.816 173.59L873.755 171.455H870.123L869 168Z" fill="#FEFFCB"/>
</g>
<path d="M739 139L737.877 142.455H734.245L737.184 144.59L736.061 148.045L739 145.91L741.939 148.045L740.816 144.59L743.755 142.455H740.123L739 139Z" fill="#FEFFCB"/>
<g filter="url(#filter6_f_202_8932)">
<path d="M1140.5 239L1137.69 247.637H1128.61L1135.96 252.975L1133.15 261.613L1140.5 256.275L1147.85 261.613L1145.04 252.975L1152.39 247.637H1143.31L1140.5 239Z" fill="#FEFFCB"/>
</g>
<g filter="url(#filter7_f_202_8932)">
<path d="M1030.5 122L1028.82 127.182H1023.37L1027.78 130.385L1026.09 135.568L1030.5 132.365L1034.91 135.568L1033.22 130.385L1037.63 127.182H1032.18L1030.5 122Z" fill="#FEFFCB"/>
</g>
<g filter="url(#filter8_f_202_8932)">
<path d="M1153.5 139L1156.31 147.637H1165.39L1158.04 152.975L1160.85 161.613L1153.5 156.275L1146.15 161.613L1148.96 152.975L1141.61 147.637H1150.69L1153.5 139Z" fill="#FEFFCB"/>
</g>
<g filter="url(#filter9_f_202_8932)">
<path d="M1488.5 34L1490.18 39.1824H1495.63L1491.22 42.3853L1492.91 47.5676L1488.5 44.3647L1484.09 47.5676L1485.78 42.3853L1481.37 39.1824H1486.82L1488.5 34Z" fill="#FB47FF"/>
</g>
<g filter="url(#filter10_f_202_8932)">
<path d="M1696.5 119L1698.18 124.182H1703.63L1699.22 127.385L1700.91 132.568L1696.5 129.365L1692.09 132.568L1693.78 127.385L1689.37 124.182H1694.82L1696.5 119Z" fill="#FEFFCB"/>
</g>
<g filter="url(#filter11_f_202_8932)">
<path d="M1856.5 29L1859.31 37.6373H1868.39L1861.04 42.9754L1863.85 51.6127L1856.5 46.2746L1849.15 51.6127L1851.96 42.9754L1844.61 37.6373H1853.69L1856.5 29Z" fill="#FEFFCB"/>
</g>
<g filter="url(#filter12_f_202_8932)">
<path d="M1589.5 274L1591.18 279.182H1596.63L1592.22 282.385L1593.91 287.568L1589.5 284.365L1585.09 287.568L1586.78 282.385L1582.37 279.182H1587.82L1589.5 274Z" fill="#FFCBCB"/>
</g>
<g filter="url(#filter13_f_202_8932)">
<path d="M1836.5 324L1838.18 329.182H1843.63L1839.22 332.385L1840.91 337.568L1836.5 334.365L1832.09 337.568L1833.78 332.385L1829.37 329.182H1834.82L1836.5 324Z" fill="#FEFFCB"/>
</g>
<g filter="url(#filter14_f_202_8932)">
<path d="M1309 117L1307.88 120.455H1304.24L1307.18 122.59L1306.06 126.045L1309 123.91L1311.94 126.045L1310.82 122.59L1313.76 120.455H1310.12L1309 117Z" fill="#FEFFCB"/>
</g>
<g filter="url(#filter15_f_202_8932)">
<path d="M1193 24L1191.88 27.4549H1188.24L1191.18 29.5902L1190.06 33.0451L1193 30.9098L1195.94 33.0451L1194.82 29.5902L1197.76 27.4549H1194.12L1193 24Z" fill="#FB47FF"/>
</g>
<path d="M1207 259L1205.88 262.455H1202.24L1205.18 264.59L1204.06 268.045L1207 265.91L1209.94 268.045L1208.82 264.59L1211.76 262.455H1208.12L1207 259Z" fill="#FEFFCB"/>
<g filter="url(#filter16_f_202_8932)">
<path d="M1559.5 273L1556.69 281.637H1547.61L1554.96 286.975L1552.15 295.613L1559.5 290.275L1566.85 295.613L1564.04 286.975L1571.39 281.637H1562.31L1559.5 273Z" fill="#FFCBCB"/>
</g>
<g filter="url(#filter17_f_202_8932)">
<path d="M1239 290L1240.12 293.455H1243.76L1240.82 295.59L1241.94 299.045L1239 296.91L1236.06 299.045L1237.18 295.59L1234.24 293.455H1237.88L1239 290Z" fill="#FEFFCB"/>
</g>
<path d="M1369 261L1370.12 264.455H1373.76L1370.82 266.59L1371.94 270.045L1369 267.91L1366.06 270.045L1367.18 266.59L1364.24 264.455H1367.88L1369 261Z" fill="#FEFFCB"/>
<g filter="url(#filter18_f_202_8932)">
<path d="M720.5 246L723.306 254.637H732.388L725.041 259.975L727.847 268.613L720.5 263.275L713.153 268.613L715.959 259.975L708.612 254.637H717.694L720.5 246Z" fill="#FEFFCB"/>
</g>
<g filter="url(#filter19_f_202_8932)">
<path d="M1236.5 27L1238.18 32.1824H1243.63L1239.22 35.3853L1240.91 40.5676L1236.5 37.3647L1232.09 40.5676L1233.78 35.3853L1229.37 32.1824H1234.82L1236.5 27Z" fill="#FEFFCB"/>
</g>
<g filter="url(#filter20_f_202_8932)">
<path d="M384 13L379.51 26.8197H364.979L376.735 35.3607L372.244 49.1803L384 40.6393L395.756 49.1803L391.265 35.3607L403.021 26.8197H388.49L384 13Z" fill="#FCFF69"/>
</g>
<g filter="url(#filter21_f_202_8932)">
<path d="M411.5 241L409.816 246.182H404.367L408.775 249.385L407.092 254.568L411.5 251.365L415.908 254.568L414.225 249.385L418.633 246.182H413.184L411.5 241Z" fill="#FEFFCB"/>
</g>
<g filter="url(#filter22_f_202_8932)">
<path d="M518.5 396L516.816 401.182H511.367L515.775 404.385L514.092 409.568L518.5 406.365L522.908 409.568L521.225 404.385L525.633 401.182H520.184L518.5 396Z" fill="#FFCBCB"/>
</g>
<g filter="url(#filter23_f_202_8932)">
<path d="M284 4L282.877 7.45492H279.245L282.184 9.59017L281.061 13.0451L284 10.9098L286.939 13.0451L285.816 9.59017L288.755 7.45492H285.123L284 4Z" fill="#FEFFCB"/>
</g>
<g filter="url(#filter24_f_202_8932)">
<path d="M89.5 14L87.8161 19.1824H82.3671L86.7755 22.3853L85.0916 27.5676L89.5 24.3647L93.9084 27.5676L92.2245 22.3853L96.6329 19.1824H91.1839L89.5 14Z" fill="#FEFFCB"/>
</g>
<g filter="url(#filter25_f_202_8932)">
<path d="M9 119L10.1226 122.455H13.7553L10.8164 124.59L11.9389 128.045L9 125.91L6.06107 128.045L7.18364 124.59L4.24472 122.455H7.87743L9 119Z" fill="#FEFFCB"/>
</g>
<g filter="url(#filter26_f_202_8932)">
<path d="M27.5 226L24.6936 234.637H15.6118L22.9591 239.975L20.1527 248.613L27.5 243.275L34.8473 248.613L32.0409 239.975L39.3882 234.637H30.3064L27.5 226Z" fill="#FB47FF"/>
</g>
<g filter="url(#filter27_f_202_8932)">
<path d="M336.5 221L338.184 226.182H343.633L339.225 229.385L340.908 234.568L336.5 231.365L332.092 234.568L333.775 229.385L329.367 226.182H334.816L336.5 221Z" fill="#FEFFCB"/>
</g>
<g filter="url(#filter28_f_202_8932)">
<path d="M229.5 376L231.184 381.182H236.633L232.225 384.385L233.908 389.568L229.5 386.365L225.092 389.568L226.775 384.385L222.367 381.182H227.816L229.5 376Z" fill="#FEFFCB"/>
</g>
<path d="M958 22L959.123 25.4549H962.755L959.816 27.5902L960.939 31.0451L958 28.9098L955.061 31.0451L956.184 27.5902L953.245 25.4549H956.877L958 22Z" fill="#FEFFCB"/>
<g filter="url(#filter29_f_202_8932)">
<path d="M901 381L902.123 384.455H905.755L902.816 386.59L903.939 390.045L901 387.91L898.061 390.045L899.184 386.59L896.245 384.455H899.877L901 381Z" fill="#FB47FF"/>
</g>
<g filter="url(#filter30_f_202_8932)">
<path d="M1655 59L1653.88 62.4549H1650.24L1653.18 64.5902L1652.06 68.0451L1655 65.9098L1657.94 68.0451L1656.82 64.5902L1659.76 62.4549H1656.12L1655 59Z" fill="#FEFFCB"/>
</g>
<defs>
<filter id="filter0_f_202_8932" x="811.245" y="76" width="17.5106" height="17.0449" filterUnits="userSpaceOnUse" color-interpolation-filters="sRGB">
<feFlood flood-opacity="0" result="BackgroundImageFix"/>
<feBlend mode="normal" in="SourceGraphic" in2="BackgroundImageFix" result="shape"/>
<feGaussianBlur stdDeviation="2" result="effect1_foregroundBlur_202_8932"/>
</filter>
<filter id="filter1_f_202_8932" x="926.245" y="25" width="17.5106" height="17.0449" filterUnits="userSpaceOnUse" color-interpolation-filters="sRGB">
<feFlood flood-opacity="0" result="BackgroundImageFix"/>
<feBlend mode="normal" in="SourceGraphic" in2="BackgroundImageFix" result="shape"/>
<feGaussianBlur stdDeviation="2" result="effect1_foregroundBlur_202_8932"/>
</filter>
<filter id="filter2_f_202_8932" x="455.245" y="20" width="17.5106" height="17.0449" filterUnits="userSpaceOnUse" color-interpolation-filters="sRGB">
<feFlood flood-opacity="0" result="BackgroundImageFix"/>
<feBlend mode="normal" in="SourceGraphic" in2="BackgroundImageFix" result="shape"/>
<feGaussianBlur stdDeviation="2" result="effect1_foregroundBlur_202_8932"/>
</filter>
<filter id="filter3_f_202_8932" x="532.612" y="147" width="31.7764" height="30.6123" filterUnits="userSpaceOnUse" color-interpolation-filters="sRGB">
<feFlood flood-opacity="0" result="BackgroundImageFix"/>
<feBlend mode="normal" in="SourceGraphic" in2="BackgroundImageFix" result="shape"/>
<feGaussianBlur stdDeviation="2" result="effect1_foregroundBlur_202_8932"/>
</filter>
<filter id="filter4_f_202_8932" x="641.367" y="24" width="34.2659" height="33.5674" filterUnits="userSpaceOnUse" color-interpolation-filters="sRGB">
<feFlood flood-opacity="0" result="BackgroundImageFix"/>
<feBlend mode="normal" in="SourceGraphic" in2="BackgroundImageFix" result="shape"/>
<feGaussianBlur stdDeviation="5" result="effect1_foregroundBlur_202_8932"/>
</filter>
<filter id="filter5_f_202_8932" x="860.245" y="164" width="17.5106" height="17.0449" filterUnits="userSpaceOnUse" color-interpolation-filters="sRGB">
<feFlood flood-opacity="0" result="BackgroundImageFix"/>
<feBlend mode="normal" in="SourceGraphic" in2="BackgroundImageFix" result="shape"/>
<feGaussianBlur stdDeviation="2" result="effect1_foregroundBlur_202_8932"/>
</filter>
<filter id="filter6_f_202_8932" x="1118.61" y="229" width="43.7764" height="42.6123" filterUnits="userSpaceOnUse" color-interpolation-filters="sRGB">
<feFlood flood-opacity="0" result="BackgroundImageFix"/>
<feBlend mode="normal" in="SourceGraphic" in2="BackgroundImageFix" result="shape"/>
<feGaussianBlur stdDeviation="5" result="effect1_foregroundBlur_202_8932"/>
</filter>
<filter id="filter7_f_202_8932" x="1019.37" y="118" width="22.2659" height="21.5674" filterUnits="userSpaceOnUse" color-interpolation-filters="sRGB">
<feFlood flood-opacity="0" result="BackgroundImageFix"/>
<feBlend mode="normal" in="SourceGraphic" in2="BackgroundImageFix" result="shape"/>
<feGaussianBlur stdDeviation="2" result="effect1_foregroundBlur_202_8932"/>
</filter>
<filter id="filter8_f_202_8932" x="1137.61" y="135" width="31.7764" height="30.6123" filterUnits="userSpaceOnUse" color-interpolation-filters="sRGB">
<feFlood flood-opacity="0" result="BackgroundImageFix"/>
<feBlend mode="normal" in="SourceGraphic" in2="BackgroundImageFix" result="shape"/>
<feGaussianBlur stdDeviation="2" result="effect1_foregroundBlur_202_8932"/>
</filter>
<filter id="filter9_f_202_8932" x="1477.37" y="30" width="22.2659" height="21.5674" filterUnits="userSpaceOnUse" color-interpolation-filters="sRGB">
<feFlood flood-opacity="0" result="BackgroundImageFix"/>
<feBlend mode="normal" in="SourceGraphic" in2="BackgroundImageFix" result="shape"/>
<feGaussianBlur stdDeviation="2" result="effect1_foregroundBlur_202_8932"/>
</filter>
<filter id="filter10_f_202_8932" x="1685.37" y="115" width="22.2659" height="21.5674" filterUnits="userSpaceOnUse" color-interpolation-filters="sRGB">
<feFlood flood-opacity="0" result="BackgroundImageFix"/>
<feBlend mode="normal" in="SourceGraphic" in2="BackgroundImageFix" result="shape"/>
<feGaussianBlur stdDeviation="2" result="effect1_foregroundBlur_202_8932"/>
</filter>
<filter id="filter11_f_202_8932" x="1840.61" y="25" width="31.7764" height="30.6123" filterUnits="userSpaceOnUse" color-interpolation-filters="sRGB">
<feFlood flood-opacity="0" result="BackgroundImageFix"/>
<feBlend mode="normal" in="SourceGraphic" in2="BackgroundImageFix" result="shape"/>
<feGaussianBlur stdDeviation="2" result="effect1_foregroundBlur_202_8932"/>
</filter>
<filter id="filter12_f_202_8932" x="1578.37" y="270" width="22.2659" height="21.5674" filterUnits="userSpaceOnUse" color-interpolation-filters="sRGB">
<feFlood flood-opacity="0" result="BackgroundImageFix"/>
<feBlend mode="normal" in="SourceGraphic" in2="BackgroundImageFix" result="shape"/>
<feGaussianBlur stdDeviation="2" result="effect1_foregroundBlur_202_8932"/>
</filter>
<filter id="filter13_f_202_8932" x="1819.37" y="314" width="34.2659" height="33.5674" filterUnits="userSpaceOnUse" color-interpolation-filters="sRGB">
<feFlood flood-opacity="0" result="BackgroundImageFix"/>
<feBlend mode="normal" in="SourceGraphic" in2="BackgroundImageFix" result="shape"/>
<feGaussianBlur stdDeviation="5" result="effect1_foregroundBlur_202_8932"/>
</filter>
<filter id="filter14_f_202_8932" x="1300.24" y="113" width="17.5105" height="17.0449" filterUnits="userSpaceOnUse" color-interpolation-filters="sRGB">
<feFlood flood-opacity="0" result="BackgroundImageFix"/>
<feBlend mode="normal" in="SourceGraphic" in2="BackgroundImageFix" result="shape"/>
<feGaussianBlur stdDeviation="2" result="effect1_foregroundBlur_202_8932"/>
</filter>
<filter id="filter15_f_202_8932" x="1184.24" y="20" width="17.5106" height="17.0449" filterUnits="userSpaceOnUse" color-interpolation-filters="sRGB">
<feFlood flood-opacity="0" result="BackgroundImageFix"/>
<feBlend mode="normal" in="SourceGraphic" in2="BackgroundImageFix" result="shape"/>
<feGaussianBlur stdDeviation="2" result="effect1_foregroundBlur_202_8932"/>
</filter>
<filter id="filter16_f_202_8932" x="1543.61" y="269" width="31.7764" height="30.6123" filterUnits="userSpaceOnUse" color-interpolation-filters="sRGB">
<feFlood flood-opacity="0" result="BackgroundImageFix"/>
<feBlend mode="normal" in="SourceGraphic" in2="BackgroundImageFix" result="shape"/>
<feGaussianBlur stdDeviation="2" result="effect1_foregroundBlur_202_8932"/>
</filter>
<filter id="filter17_f_202_8932" x="1230.24" y="286" width="17.5106" height="17.0449" filterUnits="userSpaceOnUse" color-interpolation-filters="sRGB">
<feFlood flood-opacity="0" result="BackgroundImageFix"/>
<feBlend mode="normal" in="SourceGraphic" in2="BackgroundImageFix" result="shape"/>
<feGaussianBlur stdDeviation="2" result="effect1_foregroundBlur_202_8932"/>
</filter>
<filter id="filter18_f_202_8932" x="698.612" y="236" width="43.7764" height="42.6123" filterUnits="userSpaceOnUse" color-interpolation-filters="sRGB">
<feFlood flood-opacity="0" result="BackgroundImageFix"/>
<feBlend mode="normal" in="SourceGraphic" in2="BackgroundImageFix" result="shape"/>
<feGaussianBlur stdDeviation="5" result="effect1_foregroundBlur_202_8932"/>
</filter>
<filter id="filter19_f_202_8932" x="1225.37" y="23" width="22.2659" height="21.5674" filterUnits="userSpaceOnUse" color-interpolation-filters="sRGB">
<feFlood flood-opacity="0" result="BackgroundImageFix"/>
<feBlend mode="normal" in="SourceGraphic" in2="BackgroundImageFix" result="shape"/>
<feGaussianBlur stdDeviation="2" result="effect1_foregroundBlur_202_8932"/>
</filter>
<filter id="filter20_f_202_8932" x="360.979" y="9" width="46.0423" height="44.1807" filterUnits="userSpaceOnUse" color-interpolation-filters="sRGB">
<feFlood flood-opacity="0" result="BackgroundImageFix"/>
<feBlend mode="normal" in="SourceGraphic" in2="BackgroundImageFix" result="shape"/>
<feGaussianBlur stdDeviation="2" result="effect1_foregroundBlur_202_8932"/>
</filter>
<filter id="filter21_f_202_8932" x="400.367" y="237" width="22.2658" height="21.5674" filterUnits="userSpaceOnUse" color-interpolation-filters="sRGB">
<feFlood flood-opacity="0" result="BackgroundImageFix"/>
<feBlend mode="normal" in="SourceGraphic" in2="BackgroundImageFix" result="shape"/>
<feGaussianBlur stdDeviation="2" result="effect1_foregroundBlur_202_8932"/>
</filter>
<filter id="filter22_f_202_8932" x="507.367" y="392" width="22.2659" height="21.5674" filterUnits="userSpaceOnUse" color-interpolation-filters="sRGB">
<feFlood flood-opacity="0" result="BackgroundImageFix"/>
<feBlend mode="normal" in="SourceGraphic" in2="BackgroundImageFix" result="shape"/>
<feGaussianBlur stdDeviation="2" result="effect1_foregroundBlur_202_8932"/>
</filter>
<filter id="filter23_f_202_8932" x="275.245" y="0" width="17.5106" height="17.0449" filterUnits="userSpaceOnUse" color-interpolation-filters="sRGB">
<feFlood flood-opacity="0" result="BackgroundImageFix"/>
<feBlend mode="normal" in="SourceGraphic" in2="BackgroundImageFix" result="shape"/>
<feGaussianBlur stdDeviation="2" result="effect1_foregroundBlur_202_8932"/>
</filter>
<filter id="filter24_f_202_8932" x="78.3671" y="10" width="22.2658" height="21.5674" filterUnits="userSpaceOnUse" color-interpolation-filters="sRGB">
<feFlood flood-opacity="0" result="BackgroundImageFix"/>
<feBlend mode="normal" in="SourceGraphic" in2="BackgroundImageFix" result="shape"/>
<feGaussianBlur stdDeviation="2" result="effect1_foregroundBlur_202_8932"/>
</filter>
<filter id="filter25_f_202_8932" x="0.24472" y="115" width="17.5106" height="17.0449" filterUnits="userSpaceOnUse" color-interpolation-filters="sRGB">
<feFlood flood-opacity="0" result="BackgroundImageFix"/>
<feBlend mode="normal" in="SourceGraphic" in2="BackgroundImageFix" result="shape"/>
<feGaussianBlur stdDeviation="2" result="effect1_foregroundBlur_202_8932"/>
</filter>
<filter id="filter26_f_202_8932" x="11.6118" y="222" width="31.7764" height="30.6123" filterUnits="userSpaceOnUse" color-interpolation-filters="sRGB">
<feFlood flood-opacity="0" result="BackgroundImageFix"/>
<feBlend mode="normal" in="SourceGraphic" in2="BackgroundImageFix" result="shape"/>
<feGaussianBlur stdDeviation="2" result="effect1_foregroundBlur_202_8932"/>
</filter>
<filter id="filter27_f_202_8932" x="319.367" y="211" width="34.2659" height="33.5674" filterUnits="userSpaceOnUse" color-interpolation-filters="sRGB">
<feFlood flood-opacity="0" result="BackgroundImageFix"/>
<feBlend mode="normal" in="SourceGraphic" in2="BackgroundImageFix" result="shape"/>
<feGaussianBlur stdDeviation="5" result="effect1_foregroundBlur_202_8932"/>
</filter>
<filter id="filter28_f_202_8932" x="212.367" y="366" width="34.2658" height="33.5674" filterUnits="userSpaceOnUse" color-interpolation-filters="sRGB">
<feFlood flood-opacity="0" result="BackgroundImageFix"/>
<feBlend mode="normal" in="SourceGraphic" in2="BackgroundImageFix" result="shape"/>
<feGaussianBlur stdDeviation="5" result="effect1_foregroundBlur_202_8932"/>
</filter>
<filter id="filter29_f_202_8932" x="892.245" y="377" width="17.5106" height="17.0449" filterUnits="userSpaceOnUse" color-interpolation-filters="sRGB">
<feFlood flood-opacity="0" result="BackgroundImageFix"/>
<feBlend mode="normal" in="SourceGraphic" in2="BackgroundImageFix" result="shape"/>
<feGaussianBlur stdDeviation="2" result="effect1_foregroundBlur_202_8932"/>
</filter>
<filter id="filter30_f_202_8932" x="1640.24" y="49" width="29.5105" height="29.0449" filterUnits="userSpaceOnUse" color-interpolation-filters="sRGB">
<feFlood flood-opacity="0" result="BackgroundImageFix"/>
<feBlend mode="normal" in="SourceGraphic" in2="BackgroundImageFix" result="shape"/>
<feGaussianBlur stdDeviation="5" result="effect1_foregroundBlur_202_8932"/>
</filter>
</defs>
</svg>
